<?xml version="1.0" encoding="UTF-8" standalone="no"?>
<svg
   width="800px"
   height="800px"
   viewBox="0 0 16 16"
   version="1.1"
   id="svg4"
   xmlns="http://www.w3.org/2000/svg"
   xmlns:svg="http://www.w3.org/2000/svg">
  <defs
     id="defs8" />
  <g
     id="layer1">
    <rect
       style="display:inline;fill:#f2f2f2;stroke-width:0.0131688"
       id="rect344"
       width="16.338984"
       height="16.40678"
       x="-0.13559318"
       y="-0.13559319" />
  </g>
  <path
     d="m 8.2711863,4.2966101 c -0.828125,0 -1.5,0.671875 -1.5,1.5 0,0.828125 0.671875,1.5 1.5,1.5 0.828125,0 1.4999998,-0.671875 1.4999998,-1.5 0,-0.828125 -0.6718748,-1.5 -1.4999998,-1.5 z m -0.75,3.5 c -1.246094,0 -2.25,1.003906 -2.25,2.2499999 v 0.25 c 0,0.554688 0.4453125,1 1,1 h 3.9999997 c 0.554688,0 1,-0.445312 1,-1 v -0.25 c 0,-1.2460939 -1.003906,-2.2499999 -2.2499997,-2.2499999 z m 0,0"
     fill="#2e3436"
     id="path2"
     style="stroke-width:0.5" />
  <g
     id="layer2" />
</svg>
